<svg xmlns="http://www.w3.org/2000/svg" viewBox="0 0 148 148" width="148" height="148" role="img" aria-labelledby="title desc">
  <title id="title">うみゃみーMusic アイコン</title>
  <desc id="desc">ピンクと青の二つの音符</desc>
  <defs>
    <linearGradient id="tile" x1="8" y1="8" x2="140" y2="140" gradientUnits="userSpaceOnUse">
      <stop stop-color="#fff0f1"/>
      <stop offset=".5" stop-color="#faf6fb"/>
      <stop offset="1" stop-color="#edf7ff"/>
    </linearGradient>
  </defs>
  <rect x="1.5" y="1.5" width="143" height="143" rx="35" fill="url(#tile)" stroke="#e5ebf2" stroke-width="3"/>
  <!-- Conventional eighth-note anatomy: regular elliptical heads, stems on the right edge, flags flowing from the stem tops. -->
  <!-- Each note is one compound path, so the intentional overlap between head and stem cannot produce a raster seam. -->
  <path fill="#ff8184" transform="translate(-6 22) scale(6.6)" d="M9.2 13c0 1.16-1.21 2.1-2.7 2.1s-2.7-.94-2.7-2.1 1.21-2.1 2.7-2.1 2.7.94 2.7 2.1Z M8 13.4V2.8c0-.55.45-1 1-1 2.95.1 4.9 2.25 4.9 5.1-1.15-1.25-2.65-2.05-4.7-2.15V13.4H8Z"/>
  <path fill="#54a2e5" transform="translate(43 27) scale(6.6)" d="M9.2 13c0 1.16-1.21 2.1-2.7 2.1s-2.7-.94-2.7-2.1 1.21-2.1 2.7-2.1 2.7.94 2.7 2.1Z M8 13.4V2.8c0-.55.45-1 1-1 2.95.1 4.9 2.25 4.9 5.1-1.15-1.25-2.65-2.05-4.7-2.15V13.4H8Z"/>
</svg>
